# Blender v2.79 (sub 0) OBJ File: ''
# www.blender.org
mtllib Street.mtl
o Plane01_Untitled
v 397.288727 -0.000035 794.629822
v -397.348480 -0.000035 794.629822
v 397.288727 0.000035 -794.644592
v -397.348480 0.000035 -794.644592
v -264.485138 0.000035 -794.644592
v 264.425415 0.000035 -794.644592
v 264.425385 -0.000035 794.629822
v -264.485168 -0.000035 794.629822
v -397.348480 -26.487873 -794.644592
v -264.485138 -6.613996 -794.644592
v -264.485168 -6.614066 794.629822
v -397.348480 -26.487942 794.629822
v 397.288727 -26.487873 -794.644592
v 397.288727 -26.487942 794.629822
v 264.425385 -6.614066 794.629822
v 264.425415 -6.613996 -794.644592
v -284.359039 -26.487873 -794.644592
v -284.359070 -26.487942 794.629822
v 284.299286 -26.487942 794.629822
v 284.299316 -26.487873 -794.644592
v -265.280121 -13.768592 -794.644592
v -267.664948 -19.333279 -794.644592
v -271.639740 -23.308054 -794.644592
v -277.204437 -25.692917 -794.644592
v -277.204468 -25.692986 794.629822
v -271.639771 -23.308123 794.629822
v -267.664978 -19.333347 794.629822
v -265.280121 -13.768661 794.629822
v 265.220367 -13.768661 794.629822
v 267.605194 -19.333347 794.629822
v 271.579987 -23.308123 794.629822
v 277.144684 -25.692986 794.629822
v 277.144714 -25.692917 -794.644592
v 271.580017 -23.308054 -794.644592
v 267.605225 -19.333279 -794.644592
v 265.220367 -13.768592 -794.644592
vt 0.167200 0.000000
vt 0.832800 0.000000
vt 0.832800 1.000000
vt 0.167200 1.000000
vt 0.857810 0.000000
vt 1.000000 0.000000
vt 1.000000 1.000000
vt 0.857810 1.000000
vt 0.142190 1.000000
vt 0.000000 1.000000
vt 0.000000 0.000000
vt 0.142190 0.000000
vt 1.000000 1.000000
vt 0.832800 1.000000
vt 0.833800 1.000000
vt 0.836802 1.000000
vt 0.841804 1.000000
vt 0.848806 1.000000
vt 0.832800 0.000000
vt 1.000000 0.000000
vt 0.848806 0.000000
vt 0.841804 0.000000
vt 0.836802 0.000000
vt 0.833800 0.000000
vt 0.000000 1.000000
vt 0.000000 0.000000
vt 0.167200 0.000000
vt 0.166200 0.000000
vt 0.163198 0.000000
vt 0.158196 0.000000
vt 0.151194 0.000000
vt 0.167200 1.000000
vt 0.151194 1.000000
vt 0.158196 1.000000
vt 0.163198 1.000000
vt 0.166200 1.000000
vn 0.0000 -1.0000 -0.0000
vn 0.0553 -0.9985 -0.0000
vn -0.0553 -0.9985 -0.0000
vn 0.0000 0.0000 -1.0000
vn 1.0000 0.0000 0.0000
vn 0.9985 -0.0553 0.0000
vn 0.0000 0.0000 1.0000
vn -1.0000 0.0000 0.0000
vn -0.9985 -0.0553 -0.0000
vn 0.2549 -0.9670 -0.0000
vn -0.2549 -0.9670 -0.0000
vn 0.5606 -0.8281 -0.0000
vn 0.8281 -0.5606 -0.0000
vn 0.9670 -0.2549 -0.0000
vn -0.5606 -0.8281 -0.0000
vn -0.8281 -0.5606 -0.0000
vn -0.9670 -0.2549 -0.0000
usemtl Jezdnia_Kraweznik_MAT
s 1
f 7/1/1 8/2/1 5/3/1 6/4/1
f 18/5/2 12/6/1 9/7/1 17/8/2
f 20/9/3 13/10/1 14/11/1 19/12/3
f 4/13/4 5/3/4 10/14/4 21/15/4 22/16/4 23/17/4 24/18/4 17/8/4 9/7/4
f 5/3/5 8/2/5 11/19/6 10/14/6
f 8/2/7 2/20/7 12/6/7 18/5/7 25/21/7 26/22/7 27/23/7 28/24/7 11/19/7
f 2/20/8 4/13/8 9/7/8 12/6/8
f 3/25/5 1/26/5 14/11/5 13/10/5
f 1/26/7 7/1/7 15/27/7 29/28/7 30/29/7 31/30/7 32/31/7 19/12/7 14/11/7
f 7/1/8 6/4/8 16/32/9 15/27/9
f 6/4/4 3/25/4 13/10/4 20/9/4 33/33/4 34/34/4 35/35/4 36/36/4 16/32/4
f 17/8/2 24/18/10 25/21/10 18/5/2
f 19/12/3 32/31/11 33/33/11 20/9/3
f 24/18/10 23/17/12 26/22/12 25/21/10
f 23/17/12 22/16/13 27/23/13 26/22/12
f 22/16/13 21/15/14 28/24/14 27/23/13
f 21/15/14 10/14/6 11/19/6 28/24/14
f 32/31/11 31/30/15 34/34/15 33/33/11
f 31/30/15 30/29/16 35/35/16 34/34/15
f 30/29/16 29/28/17 36/36/17 35/35/16
f 29/28/17 15/27/9 16/32/9 36/36/17
